<?xml version="1.0" encoding="UTF-8" standalone="no"?>
<!-- Created with Inkscape (http://www.inkscape.org/) -->

<svg
   xmlns:dc="http://purl.org/dc/elements/1.1/"
   xmlns:cc="http://creativecommons.org/ns#"
   xmlns:rdf="http://www.w3.org/1999/02/22-rdf-syntax-ns#"
   xmlns:svg="http://www.w3.org/2000/svg"
   xmlns="http://www.w3.org/2000/svg"
   xmlns:sodipodi="http://sodipodi.sourceforge.net/DTD/sodipodi-0.dtd"
   xmlns:inkscape="http://www.inkscape.org/namespaces/inkscape"
   width="422.00006"
   height="113.99999"
   viewBox="0 0 111.65419 30.162497"
   version="1.1"
   id="svg8"
   inkscape:version="0.92.4 (5da689c313, 2019-01-14)"
   sodipodi:docname="logo.svg">
  <defs
     id="defs2" />
  <sodipodi:namedview
     id="base"
     pagecolor="#ffffff"
     bordercolor="#666666"
     borderopacity="1.0"
     inkscape:pageopacity="0.0"
     inkscape:pageshadow="2"
     inkscape:zoom="7.0006911"
     inkscape:cx="100.21147"
     inkscape:cy="65.315139"
     inkscape:document-units="mm"
     inkscape:current-layer="layer4"
     showgrid="false"
     showguides="false"
     showborder="true"
     inkscape:window-width="2560"
     inkscape:window-height="1017"
     inkscape:window-x="-8"
     inkscape:window-y="-8"
     inkscape:window-maximized="1"
     units="px"
     fit-margin-top="0"
     fit-margin-left="0"
     fit-margin-right="0"
     fit-margin-bottom="0">
    <inkscape:grid
       type="xygrid"
       id="grid71"
       originx="-14.965617"
       originy="-168.47007" />
  </sodipodi:namedview>
  <metadata
     id="metadata5">
    <rdf:RDF>
      <cc:Work
         rdf:about="">
        <dc:format>image/svg+xml</dc:format>
        <dc:type
           rdf:resource="http://purl.org/dc/dcmitype/StillImage" />
        <dc:title />
      </cc:Work>
    </rdf:RDF>
  </metadata>
  <g
     inkscape:groupmode="layer"
     id="layer3"
     inkscape:label="lemon4"
     transform="translate(-14.965616,-11.367431)">
    <path
       style="fill:#2b0000;fill-opacity:1;stroke-width:0.14284304"
       d="M 0.1235134,56.96975 V 0.11821989 H 2.409002 4.6944907 V 56.96975 113.82128 H 2.409002 0.1235134 Z"
       id="path60"
       inkscape:connector-curvature="0"
       transform="matrix(0.26458333,0,0,0.26458333,14.965616,11.367431)" />
    <path
       style="fill:#ff0000;fill-opacity:1;stroke-width:0.14284304"
       d="M 0.1235134,56.96975 V 0.11821989 H 2.409002 4.6944907 V 56.96975 113.82128 H 2.409002 0.1235134 Z"
       id="path62"
       inkscape:connector-curvature="0"
       transform="matrix(0.26458333,0,0,0.26458333,14.965616,11.367431)" />
    <path
       style="fill:#ff0000;fill-opacity:1;stroke-width:0.14284304"
       d="M 0.1235134,56.96975 V 0.11821989 H 2.409002 4.6944907 V 56.96975 113.82128 H 2.409002 0.1235134 Z"
       id="path64"
       inkscape:connector-curvature="0"
       transform="matrix(0.26458333,0,0,0.26458333,14.965616,11.367431)" />
    <path
       style="fill:#ff0000;fill-opacity:1;stroke-width:0.14284304"
       d="M 0.1235134,56.96975 V 0.11821989 H 2.409002 4.6944907 V 56.96975 113.82128 H 2.409002 0.1235134 Z"
       id="path66"
       inkscape:connector-curvature="0"
       transform="matrix(0.26458333,0,0,0.26458333,14.965616,11.367431)" />
  </g>
  <g
     inkscape:groupmode="layer"
     id="layer4"
     inkscape:label="lemon2"
     style="display:inline"
     transform="translate(-14.965616,-98.367431)">
    <path
       style="display:inline;fill:#000000;fill-opacity:1;stroke-width:0.12952524"
       d="m 349.85352,58.259766 a 49.365869,49.317014 0 0 0 -49.36524,49.316404 49.365869,49.317014 0 0 0 49.36524,49.31836 49.365869,49.317014 0 0 0 49.36718,-49.31836 49.365869,49.317014 0 0 0 -49.36718,-49.316404 z m 0,4.746093 a 44.614073,44.569922 0 0 1 44.61523,44.570311 44.614073,44.569922 0 0 1 -44.61523,44.57031 44.614073,44.569922 0 0 1 -44.61329,-44.57031 44.614073,44.569922 0 0 1 44.61329,-44.570311 z"
       transform="matrix(0.26458333,0,0,0.26458333,0,87)"
       id="path222"
       inkscape:connector-curvature="0" />
    <rect
       style="display:inline;fill:#000000;fill-opacity:1;stroke-width:0.08160154"
       id="rect139"
       width="1.2572458"
       height="26.09692"
       x="40.250225"
       y="102.41455" />
    <g
       id="g4023"
       transform="matrix(0.13969397,0,0,0.13955572,90.120972,92.087424)">
      <rect
         y="106.527"
         x="-255.14999"
         height="154.47302"
         width="9"
         id="rect143"
         style="display:inline;fill:#000000;fill-opacity:1;stroke-width:0.36646217" />
      <g
         id="g4006">
        <rect
           style="display:inline;fill:#000000;fill-opacity:1;stroke-width:0.71150827"
           id="rect69"
           width="9"
           height="216"
           x="-538"
           y="44.999996" />
        <rect
           style="display:inline;fill:#000000;fill-opacity:1;stroke-width:1.27407932"
           id="rect131"
           width="9"
           height="216"
           x="-515"
           y="45" />
        <rect
           style="display:inline;fill:#000000;fill-opacity:1;stroke-width:1.63240206"
           id="rect133"
           width="105"
           height="9"
           x="-515"
           y="252" />
        <rect
           style="display:inline;fill:#000000;fill-opacity:1;stroke-width:0.86598748"
           id="rect135"
           width="9"
           height="187"
           x="-380"
           y="74" />
        <rect
           style="display:inline;fill:#000000;fill-opacity:1;stroke-width:1.11463308"
           id="rect137"
           width="88"
           height="9"
           x="-357"
           y="74" />
        <rect
           style="display:inline;fill:#000000;fill-opacity:1;stroke-width:0.68430376"
           id="rect141"
           width="88"
           height="9"
           x="-357"
           y="252" />
        <rect
           style="display:inline;fill:#000000;fill-opacity:1;stroke-width:0.46276554"
           id="rect145"
           width="70"
           height="9"
           x="-357"
           y="156" />
        <path
           style="display:inline;fill:#000000;stroke:#000000;stroke-width:0.26458332px;stroke-linecap:butt;stroke-linejoin:miter;stroke-opacity:1"
           d="m -254.9,74 12.628,0.214 72.73046,86.23654 L -95.060035,74 H -89 v 187 h -9 V 90.291679 L -112,106.527 V 261 h -9 V 116.975 L -183.60001,189.14041 -255,106.527 v 0 L -254.9,94 c 22.56462,26.73343 48.68059,56.01139 71.4,82.6134 l 8.342,-9.6624 z"
           id="path151"
           inkscape:connector-curvature="0"
           sodipodi:nodetypes="ccccccccccccccccccc" />
        <path
           style="display:inline;fill:#000000;stroke:#000000;stroke-width:0.26458332px;stroke-linecap:butt;stroke-linejoin:miter;stroke-opacity:1"
           d="m 252,74 h 9 V 241.811 L 126,74 v 0 h 12.72 L 252,216.83 Z"
           id="path153"
           inkscape:connector-curvature="0"
           sodipodi:nodetypes="cccccccc" />
        <path
           style="display:inline;fill:#000000;stroke:#000000;stroke-width:0.26458332px;stroke-linecap:butt;stroke-linejoin:miter;stroke-opacity:1"
           d="M 261,261 126,94 v 167 h 9 V 117.1 L 249.451,261 Z"
           id="path155"
           inkscape:connector-curvature="0"
           sodipodi:nodetypes="ccccccc" />
        <rect
           style="display:inline;fill:#000000;fill-opacity:1;stroke-width:0.4464854"
           id="rect183"
           width="9"
           height="133.80357"
           x="-47"
           y="99.790924" />
        <rect
           style="display:inline;fill:#000000;fill-opacity:1;stroke-width:0.44489056"
           id="rect183-2"
           width="9"
           height="132.8492"
           x="73"
           y="100.93354" />
      </g>
    </g>
    <path
       style="fill:#ff0000;fill-opacity:1;stroke-width:0.14284304"
       d="M 0.1235134,56.96975 V 0.11821989 H 2.409002 4.6944907 V 56.96975 113.82128 H 2.409002 0.1235134 Z"
       id="path68"
       inkscape:connector-curvature="0"
       transform="matrix(0.26458333,0,0,0.26458333,14.965616,98.367431)" />
    <path
       style="fill:#ff0000;fill-opacity:1;stroke-width:0.14284304"
       d="m 16.906833,54.61284 c 0,-30.011323 0.0164,-42.267381 0.03645,-27.235684 0.02004,15.031697 0.02004,39.586416 -1e-6,54.566041 -0.02005,14.979627 -0.03645,2.680965 -0.03645,-27.330357 z"
       id="path70"
       inkscape:connector-curvature="0"
       transform="matrix(0.26458333,0,0,0.26458333,14.965616,98.367431)" />
    <path
       style="fill:#2e2e2e;fill-opacity:0;stroke-width:0.14284304"
       d="M 83.543849,64.611853 V 15.402425 h 2.285488 2.285489 v 49.209428 49.209427 h -2.285489 -2.285488 z"
       id="path72"
       inkscape:connector-curvature="0"
       transform="matrix(0.26458333,0,0,0.26458333,14.965616,98.367431)" />
    <path
       style="fill:#2e2e2e;fill-opacity:0;stroke-width:0.14284304"
       d="M 0.15208201,56.96975 V 0.11821989 H 2.3661491 4.5802163 V 56.96975 113.82128 H 2.3661491 0.15208201 Z"
       id="path4590"
       inkscape:connector-curvature="0"
       transform="matrix(0.26458333,0,0,0.26458333,14.965616,98.367431)" />
    <path
       style="fill:#2e2e2e;fill-opacity:0;stroke-width:0.14284304"
       d="M 0.15208201,56.96975 V 0.11821989 H 2.3661491 4.5802163 V 56.96975 113.82128 H 2.3661491 0.15208201 Z"
       id="path4592"
       inkscape:connector-curvature="0"
       transform="matrix(0.26458333,0,0,0.26458333,14.965616,98.367431)" />
    <path
       style="fill:#2e2e2e;fill-opacity:1;stroke-width:0.14284304"
       d="M 12.150897,56.96975 V 0.11821989 h 2.356911 2.35691 V 54.684261 109.2503 h 25.354639 25.35464 v 2.28549 2.28549 h -27.71155 -27.71155 z"
       id="path4594"
       inkscape:connector-curvature="0"
       transform="matrix(0.26458333,0,0,0.26458333,14.965616,98.367431)" />
    <path
       style="fill:#2e2e2e;fill-opacity:1;stroke-width:0.14284304;stroke:none"
       d="M 0.15208201,56.96975 V 0.11821989 H 2.3661491 4.5802163 V 56.96975 113.82128 H 2.3661491 0.15208201 Z"
       id="path4596"
       inkscape:connector-curvature="0"
       transform="matrix(0.26458333,0,0,0.26458333,14.965616,98.367431)" />
    <path
       style="fill:#2e2e2e;fill-opacity:1;stroke-width:0.14284304"
       d="m 14.543518,113.85354 -2.392621,-0.0392 V 56.894874 -0.02462315 h 2.356911 2.35691 V 54.61284 109.2503 h 25.354639 25.35464 v 2.28471 2.2847 l -25.318929,0.0365 c -13.925411,0.0201 -26.395608,0.0189 -27.71155,-0.003 z"
       id="path4598"
       inkscape:connector-curvature="0"
       transform="matrix(0.26458333,0,0,0.26458333,14.965616,98.367431)" />
    <path
       style="fill:#2e2e2e;fill-opacity:1;stroke-width:0.14284304"
       d="M 83.429574,64.611853 V 15.402425 h 2.356911 2.35691 v 49.209428 49.209427 h -2.35691 -2.356911 z"
       id="path4600"
       inkscape:connector-curvature="0"
       transform="matrix(0.26458333,0,0,0.26458333,14.965616,98.367431)" />
    <path
       style="fill:#2e2e2e;fill-opacity:1;stroke-width:0.14284304"
       d="M 95.571233,64.611853 V 15.402425 h 23.211997 23.21199 v 2.285489 2.285488 h -20.85508 -20.85509 v 19.355232 19.355232 h 16.06985 16.06984 v 2.285489 2.285489 H 116.3549 100.28505 V 86.252573 109.2503 h 20.85509 20.85508 v 2.28549 2.28549 H 118.78323 95.571233 Z"
       id="path4602"
       inkscape:connector-curvature="0"
       transform="matrix(0.26458333,0,0,0.26458333,14.965616,98.367431)" />
    <path
       style="fill:#2e2e2e;fill-opacity:1;stroke-width:0.14284304"
       d="m 222.59441,113.85345 -2.3212,-0.0392 V 75.881011 c 0,-23.016853 -0.0517,-37.914469 -0.13136,-37.885578 -0.0722,0.02619 -7.49785,8.532491 -16.50134,18.902895 -9.00349,10.370405 -16.42329,18.873497 -16.48844,18.895759 -0.11927,0.04075 -2.03026,-2.154911 -22.01628,-25.296037 -6.01012,-6.958913 -10.9757,-12.656324 -11.03462,-12.660917 -0.0589,-0.0046 -0.10713,17.089961 -0.10713,37.987898 v 37.996249 h -2.28549 -2.28549 l 0.0178,-41.31735 c 0.01,-22.724542 0.058,-42.451027 0.10713,-43.836633 l 0.0893,-2.519284 3.80215,4.447665 c 4.25304,4.975119 6.07528,7.077833 18.33781,21.160301 4.72033,5.420893 10.07762,11.591713 11.90508,13.712932 1.82747,2.121219 3.37899,3.876604 3.44783,3.900858 0.16493,0.0581 4.36014,-4.799417 4.36014,-5.048498 0,-0.105779 -3.57619,-4.358249 -7.9471,-9.449934 -4.3709,-5.091684 -13.76886,-16.036624 -20.88435,-24.322086 -7.11549,-8.285461 -12.90935,-15.09238 -12.87525,-15.126485 0.10588,-0.105882 6.27063,-0.01763 6.36903,0.09117 0.0511,0.05651 8.65867,10.258891 19.12791,22.671951 10.46925,12.41306 19.08333,22.623269 19.1424,22.689353 0.0591,0.06608 3.12192,-3.372863 6.80634,-7.642103 6.759,-7.831829 18.72106,-21.699422 27.72719,-32.144071 l 4.88854,-5.669378 1.6421,-0.04434 1.64211,-0.04434 -9e-5,49.280849 -9e-5,49.280843 -2.3571,-0.0424 -2.3571,-0.0424 V 68.894964 c 0,-38.410589 -0.0289,-44.901894 -0.19973,-44.836349 -0.10985,0.04215 -1.76504,1.887996 -3.67821,4.101875 l -3.47848,4.025235 -0.0714,40.853488 -0.0714,40.853487 z"
       id="path4604"
       inkscape:connector-curvature="0"
       transform="matrix(0.26458333,0,0,0.26458333,14.965616,98.367431)" />
    <path
       style="fill:#2e2e2e;fill-opacity:1;stroke-width:0.14284304"
       d="m 14.543518,113.85354 -2.392621,-0.0392 V 56.894874 -0.02462315 h 2.356911 2.35691 V 54.61284 109.2503 h 25.354639 25.35464 v 2.28471 2.2847 l -25.318929,0.0365 c -13.925411,0.0201 -26.395608,0.0189 -27.71155,-0.003 z"
       id="path4606"
       inkscape:connector-curvature="0"
       transform="matrix(0.26458333,0,0,0.26458333,14.965616,98.367431)" />
    <path
       style="fill:#2e2e2e;fill-opacity:1;stroke-width:0.14284304"
       d="M 289.56326,113.725 C 277.2905,112.6885 266.18172,107.44344 257.76115,98.709493 250.06911,90.73118 245.30852,80.362112 244.20503,69.18283 c -0.20229,-2.049441 -0.19785,-7.128116 0.008,-9.213376 0.61638,-6.242111 2.3317,-12.135375 5.13472,-17.641116 7.77509,-15.271981 22.71258,-25.295581 39.93508,-26.797878 2.31845,-0.202236 8.12693,-0.07607 10.27938,0.223285 15.25711,2.12187 28.16113,10.580212 36.02297,23.612373 8.48218,14.06047 9.28611,31.640492 2.12778,46.529348 -5.35321,11.134297 -14.78122,19.932004 -26.22336,24.470214 -4.37749,1.73621 -9.21849,2.89176 -13.85577,3.30739 -1.50035,0.13448 -6.69732,0.16791 -8.07063,0.0519 z m 7.31292,-4.62829 c 8.92733,-0.74965 17.41367,-4.11225 24.36252,-9.653329 l 1.39272,-1.110568 V 64.611853 30.890892 L 321.2387,29.780324 C 305.67387,17.368787 283.79336,16.694212 267.56543,28.12558 c -0.8642,0.608765 -2.02123,1.485337 -2.57118,1.947938 l -0.9999,0.841091 -0.036,33.623154 -0.036,33.623153 0.3217,0.34717 c 0.17693,0.190944 1.16605,0.982673 2.19805,1.759404 8.72699,6.56834 19.64356,9.73534 30.4341,8.82922 z m -37.55926,-58.932692 -0.0364,-14.542033 -0.97681,1.21053 c -1.31717,1.63232 -3.25545,4.568433 -4.34707,6.584979 -6.49817,12.003956 -7.08628,26.546672 -1.58205,39.12116 1.4805,3.382218 3.71406,7.091283 5.93311,9.852536 l 0.97282,1.21053 0.0364,-14.447835 c 0.02,-7.946309 0.02,-20.99175 0,-28.989867 z m 69.03166,42.123674 c 1.43681,-1.794989 3.46928,-4.955714 4.61565,-7.177863 2.3329,-4.522171 3.83045,-9.222655 4.61915,-14.498569 0.36727,-2.45678 0.36727,-9.542035 0,-11.998815 -1.02978,-6.88856 -3.37493,-13.093667 -7.01816,-18.569595 -1.19393,-1.794535 -3.00899,-4.21387 -3.16137,-4.21387 -0.0322,0 -0.0586,12.952293 -0.0586,28.782873 0,15.830579 0.0264,28.782872 0.0586,28.782872 0.0322,0 0.45736,-0.498165 0.94473,-1.107033 z"
       id="path4608"
       inkscape:connector-curvature="0"
       transform="matrix(0.26458333,0,0,0.26458333,14.965616,98.367431)" />
    <path
       style="fill:#2e2e2e;fill-opacity:1;stroke-width:0.14284304"
       d="m 350.62866,69.865261 c 0,-41.599462 0.0132,-43.937083 0.2455,-43.602837 0.13502,0.194249 4.58875,5.720507 9.89717,12.280574 5.30841,6.560066 13.76018,17.005464 18.78171,23.211994 10.83239,13.388676 24.44047,30.204421 34.67856,42.852908 l 7.39978,9.14196 -2.82199,0.0388 c -1.55209,0.0214 -2.89582,0.0105 -2.98607,-0.0241 -0.0903,-0.0346 -7.06437,-8.72982 -15.49804,-19.322644 -8.43367,-10.592823 -21.3476,-26.812504 -28.69761,-36.043736 -7.35001,-9.231231 -13.96149,-17.53934 -14.69217,-18.462463 -0.73068,-0.923123 -1.39182,-1.678405 -1.46919,-1.678405 -0.0774,0 -0.0948,-0.07421 -0.0388,-0.164914 0.0631,-0.102175 0.0392,-0.126139 -0.063,-0.06299 -0.12399,0.07663 -0.16492,9.494454 -0.16492,37.946898 v 37.844974 h -2.28548 -2.28549 z"
       id="path4610"
       inkscape:connector-curvature="0"
       transform="matrix(0.26458333,0,0,0.26458333,14.965616,98.367431)" />
    <path
       style="fill:#2e2e2e;fill-opacity:1;stroke-width:0.14284304"
       d="M 417.25067,97.998135 C 414.80735,94.955595 406.77702,84.977699 399.40549,75.825031 386.98414,60.402375 363.03572,30.660182 354.7213,20.33051 c -1.96033,-2.435474 -3.66095,-4.540623 -3.77916,-4.678109 -0.20381,-0.237056 -0.0452,-0.249976 3.06926,-0.249976 h 3.28418 l 3.70156,4.661766 c 2.03585,2.563971 6.9798,8.791115 10.98655,13.838098 13.05606,16.445687 22.20332,27.967161 29.71143,37.423186 4.05469,5.106639 9.14422,11.518506 11.31008,14.248594 2.16586,2.730087 3.99426,4.963795 4.06312,4.963795 0.0714,0 0.12519,-16.148731 0.12519,-37.567719 v -37.56772 h 2.28549 2.28549 v 44.067078 c 0,24.236893 -0.0161,44.065607 -0.0357,44.063797 -0.0196,-0.002 -2.03479,-2.49263 -4.47811,-5.535165 z"
       id="path4612"
       inkscape:connector-curvature="0"
       transform="matrix(0.26458333,0,0,0.26458333,14.965616,98.367431)" />
    <path
       style="fill:#2e2e2e;fill-opacity:1;stroke:none;stroke-width:0.14284304"
       d="M 0.18598534,56.898329 0.14992036,-0.02462424 H 2.3639875 4.5780546 L 4.5419896,56.898329 4.5059246,113.82128 H 2.3639875 0.22205033 Z"
       id="path903"
       inkscape:connector-curvature="0"
       transform="matrix(0.26458333,0,0,0.26458333,14.965616,98.367431)" />
    <path
       style="fill:#2e2e2e;fill-opacity:1;stroke:none;stroke-width:0.14284304"
       d="m 4.72019,56.96975 c 0,-31.307623 0.016387,-44.115287 0.036416,-28.461476 0.020029,15.653812 0.020029,41.26914 0,56.922952 C 4.7365774,101.08504 4.72019,88.277373 4.72019,56.96975 Z"
       id="path905"
       inkscape:connector-curvature="0"
       transform="matrix(0.26458333,0,0,0.26458333,14.965616,98.367431)" />
    <path
       style="fill:#2e2e2e;fill-opacity:1;stroke:none;stroke-width:0.03879036"
       d="m 15.053128,113.42178 -0.01005,-15.060864 h 0.617103 0.617103 l -0.01005,15.060864 -0.01005,15.06086 h -0.597 -0.596999 z"
       id="path907"
       inkscape:connector-curvature="0" />
  </g>
  <g
     inkscape:groupmode="layer"
     id="layer1"
     inkscape:label="lemon3"
     style="display:inline"
     transform="translate(-14.965616,-11.367431)" />
</svg>
